<svg width="53" height="53" viewBox="0 0 53 53" fill="none" xmlns="http://www.w3.org/2000/svg">
<rect width="53" height="53" rx="26.5" fill="url(#paint0_linear_12_85)"/>
<path d="M27.384 35.288C26.216 35.288 25.056 35.136 23.904 34.832C22.752 34.512 21.776 34.064 20.976 33.488L22.488 30.512C23.128 30.976 23.872 31.344 24.72 31.616C25.568 31.888 26.424 32.024 27.288 32.024C28.264 32.024 29.032 31.832 29.592 31.448C30.152 31.064 30.432 30.536 30.432 29.864C30.432 29.224 30.184 28.72 29.688 28.352C29.192 27.984 28.392 27.8 27.288 27.8H25.512V25.232L30.192 19.928L30.624 21.32H21.816V18.2H33.576V20.72L28.92 26.024L26.952 24.896H28.08C30.144 24.896 31.704 25.36 32.76 26.288C33.816 27.216 34.344 28.408 34.344 29.864C34.344 30.808 34.096 31.696 33.6 32.528C33.104 33.344 32.344 34.008 31.32 34.52C30.296 35.032 28.984 35.288 27.384 35.288Z" fill="white"/>
<defs>
<linearGradient id="paint0_linear_12_85" x1="53" y1="0" x2="0" y2="0" gradientUnits="userSpaceOnUse">
<stop stop-color="#903AFF"/>
<stop offset="1" stop-color="#D434FE"/>
</linearGradient>
</defs>
</svg>
